#!OML:ASF H:\LiuWeirdWalks\Patient Classification 1\Patient 1\Session 1\male.ASF
:FULLY-SPECIFIED
:DEGREES
2612
root 1.09965 17.6116 -30.9142 183.18 -181.181 177.406
lowerback 2.98817 -0.7224 -2.2386
upperback -2.70105 -0.985926 2.30301
thorax -4.39061 -0.380459 3.70976
lowerneck -18.2031 -4.1413 2.5328
upperneck 21.6089 -5.23952 -5.25556
head 9.61953 -2.84778 -2.95348
rclavicle -9.59757e-016 4.57205e-015
rhumerus -33.3773 -9.05517 -78.8792
rradius 25.4305
rwrist -3.52548
rhand -17.5855 -4.10266
rfingers 7.12502
rthumb 8.67033 -33.9046
lclavicle -9.59757e-016 4.57205e-015
lhumerus -37.7963 9.1347 79.961
lradius 27.3034
lwrist 7.1905
lhand -13.6984 1.95296
lfingers 7.12502
lthumb 12.4199 31.564
rfemur -8.93284 -0.806155 18.872
rtibia 34.8419
rfoot -19.3547 -19.7778
rtoes -4.22747
lfemur -12.6205 1.67666 -21.8251
ltibia 35.5464
lfoot -17.4546 17.3519
ltoes -8.1882
2613
root 1.10528 17.6118 -30.9107 183.198 -181.159 177.379
lowerback 2.97239 -0.748285 -2.24892
upperback -2.73103 -1.01855 2.35749
thorax -4.40935 -0.394707 3.77475
lowerneck -18.1537 -4.08952 2.52288
upperneck 21.604 -5.15323 -5.29834
head 9.61174 -2.81347 -2.95406
rclavicle -2.10277e-015 3.12092e-014
rhumerus -33.3928 -8.89709 -78.9113
rradius 25.4423
rwrist -3.55983
rhand -17.5878 -4.07758
rfingers 7.12502
rthumb 8.66816 -33.8796
lclavicle -2.10277e-015 3.12092e-014
lhumerus -37.8847 9.28523 79.9004
lradius 27.3337
lwrist 7.20312
lhand -13.7035 1.97007
lfingers 7.12502
lthumb 12.415 31.5814
rfemur -8.94482 -0.807435 18.8808
rtibia 34.8384
rfoot -19.3686 -19.7604
rtoes -4.18929
lfemur -12.6388 1.76356 -21.8096
ltibia 35.5607
lfoot -17.4682 17.2977
ltoes -8.23934
2614
root 1.11108 17.612 -30.9068 183.207 -181.136 177.354
lowerback 2.9676 -0.718951 -2.22104
upperback -2.75339 -0.978068 2.34752
thorax -4.43377 -0.374837 3.74625
lowerneck -18.0971 -4.14504 2.50176
upperneck 21.6152 -5.2339 -5.25698
head 9.60332 -2.84753 -2.94488
rclavicle -2.20185e-014 1.94809e-014
rhumerus -33.4435 -8.97219 -78.9386
rradius 25.4609
rwrist -3.55747
rhand -17.6073 -4.0731
rfingers 7.12502
rthumb 8.64928 -33.8759
lclavicle -2.20185e-014 1.94809e-014
lhumerus -37.9128 9.21834 79.8505
lradius 27.3608
lwrist 7.22891
lhand -13.7145 2.00466
lfingers 7.12502
lthumb 12.4044 31.6166
rfemur -8.94509 -0.815922 18.8852
rtibia 34.8331
rfoot -19.3829 -19.7374
rtoes -4.15221
lfemur -12.6414 1.8511 -21.7977
ltibia 35.5694
lfoot -17.4808 17.2454
ltoes -8.30689
2615
root 1.11724 17.612 -30.9025 183.205 -181.112 177.339
lowerback 2.97796 -0.694987 -2.2024
upperback -2.78073 -0.945249 2.3413
thorax -4.47116 -0.358127 3.72779
lowerneck -18.0383 -4.19051 2.48876
upperneck 21.6328 -5.29674 -5.24056
head 9.59657 -2.87558 -2.94359
rclavicle -9.49818e-015 -1.27222e-014
rhumerus -33.5032 -9.01688 -78.9655
rradius 25.4811
rwrist -3.55855
rhand -17.6189 -4.05955
rfingers 7.12502
rthumb 8.63812 -33.8628
lclavicle -9.49818e-015 -1.27222e-014
lhumerus -37.9682 9.17233 79.798
lradius 27.398
lwrist 7.2369
lhand -13.7289 2.02754
lfingers 7.12502
lthumb 12.3905 31.6403
rfemur -8.93061 -0.834301 18.8749
rtibia 34.8268
rfoot -19.4011 -19.7026
rtoes -4.11367
lfemur -12.6249 1.92548 -21.799
ltibia 35.5695
lfoot -17.488 17.2057
ltoes -8.39028
2616
root 1.12361 17.6115 -30.8976 183.189 -181.091 177.339
lowerback 2.99827 -0.674958 -2.19828
upperback -2.80948 -0.918577 2.33437
thorax -4.51502 -0.343893 3.7174
lowerneck -17.9709 -4.23157 2.46404
upperneck 21.6673 -5.34941 -5.2256
head 9.59502 -2.89991 -2.93993
rclavicle -1.25483e-014 1.39149e-014
rhumerus -33.5704 -9.04844 -78.9897
rradius 25.5004
rwrist -3.56747
rhand -17.6133 -4.03215
rfingers 7.12502
rthumb 8.64353 -33.8352
lclavicle -1.25483e-014 1.39149e-014
lhumerus -38.034 9.13043 79.7485
lradius 27.427
lwrist 7.25111
lhand -13.7616 2.04245
lfingers 7.12502
lthumb 12.359 31.6571
rfemur -8.89596 -0.867424 18.8436
rtibia 34.8221
rfoot -19.4249 -19.6558
rtoes -4.07592
lfemur -12.5823 1.98162 -21.8189
ltibia 35.5597
lfoot -17.4943 17.1786
ltoes -8.46264
2617
root 1.13 17.611 -30.8925 183.169 -181.06 177.351
lowerback 3.00638 -0.642833 -2.20069
upperback -2.82311 -0.876637 2.31171
thorax -4.53749 -0.322727 3.69273
lowerneck -17.8713 -4.31776 2.37066
upperneck 21.6769 -5.46547 -5.12753
head 9.5809 -2.94957 -2.90218
rclavicle 1.93567e-014 -5.36719e-015
rhumerus -33.6211 -9.11762 -79.0235
rradius 25.5233
rwrist -3.57257
rhand -17.6088 -4.01631
rfingers 7.12502
rthumb 8.64784 -33.8192
lclavicle 1.93567e-014 -5.36719e-015
lhumerus -38.0578 9.04453 79.7051
lradius 27.4422
lwrist 7.26745
lhand -13.8036 2.0843
lfingers 7.12502
lthumb 12.3184 31.7014
rfemur -8.85941 -0.904287 18.796
rtibia 34.8207
rfoot -19.4418 -19.5989
rtoes -4.05451
lfemur -12.5315 2.04327 -21.8517
ltibia 35.5425
lfoot -17.4992 17.1524
ltoes -8.52641
2618
root 1.136 17.6105 -30.8878 183.148 -181.036 177.37
lowerback 2.99667 -0.477095 -2.13091
upperback -2.79093 -0.658435 2.13587
thorax -4.5178 -0.22024 3.4547
lowerneck -17.6585 -4.69056 2.14358
upperneck 21.5994 -6.02755 -4.68167
head 9.51326 -3.17695 -2.77085
rclavicle -2.15557e-015 1.46107e-014
rhumerus -33.7013 -9.74564 -79.054
rradius 25.5722
rwrist -3.52431
rhand -17.6029 -4.00215
rfingers 7.12502
rthumb 8.65355 -33.8048
lclavicle -2.15557e-015 1.46107e-014
lhumerus -37.8449 8.43583 79.699
lradius 27.41
lwrist 7.34645
lhand -13.8217 2.11511
lfingers 7.12502
lthumb 12.301 31.7333
rfemur -8.82336 -0.945423 18.7433
rtibia 34.824
rfoot -19.4598 -19.5442
rtoes -4.03364
lfemur -12.4799 2.10287 -21.8884
ltibia 35.5222
lfoot -17.5017 17.1179
ltoes -8.57475
2619
root 1.14133 17.6102 -30.8841 183.138 -181.012 177.384
lowerback 2.97404 -0.34692 -2.08562
upperback -2.75061 -0.487247 2.00251
thorax -4.47673 -0.140032 3.27791
lowerneck -17.5238 -4.97168 1.97262
upperneck 21.5369 -6.45683 -4.32382
head 9.46923 -3.34889 -2.66608
rclavicle -1.27766e-014 9.44227e-015
rhumerus -33.721 -10.2297 -79.1011
rradius 25.6162
rwrist -3.49785
rhand -17.5846 -3.9781
rfingers 7.12502
rthumb 8.67119 -33.78
lclavicle -1.27766e-014 9.44227e-015
lhumerus -37.6421 7.97062 79.6865
lradius 27.3783
lwrist 7.41202
lhand -13.8441 2.13857
lfingers 7.12502
lthumb 12.2795 31.758
rfemur -8.80597 -0.976723 18.7014
rtibia 34.8313
rfoot -19.4685 -19.4982
rtoes -4.02485
lfemur -12.4462 2.17162 -21.9155
ltibia 35.5036
lfoot -17.5022 17.0729
ltoes -8.61085
2620
root 1.14618 17.6102 -30.8814 183.142 -180.994 177.402
lowerback 2.94983 -0.233583 -2.06091
upperback -2.73995 -0.338811 1.88547
thorax -4.46297 -0.0693407 3.13185
lowerneck -17.4104 -5.15911 1.95686
upperneck 21.5007 -6.76078 -4.1246
head 9.43271 -3.46865 -2.62708
rclavicle 5.59703e-015 1.59028e-015
rhumerus -33.7825 -10.6304 -79.1502
rradius 25.6751
rwrist -3.49748
rhand -17.5715 -3.97881
rfingers 7.12502
rthumb 8.68384 -33.7802
lclavicle 5.59703e-015 1.59028e-015
lhumerus -37.5063 7.55166 79.664
lradius 27.3576
lwrist 7.47022
lhand -13.8422 2.20151
lfingers 7.12502
lthumb 12.2813 31.8209
rfemur -8.80847 -1.01095 18.6581
rtibia 34.8432
rfoot -19.471 -19.4587
rtoes -4.02347
lfemur -12.4325 2.24625 -21.9448
ltibia 35.4887
lfoot -17.5023 17.0144
ltoes -8.64064
2621
root 1.15125 17.6103 -30.8793 183.158 -180.966 177.411
lowerback 2.93422 -0.183565 -2.06874
upperback -2.77254 -0.273542 1.84597
thorax -4.4927 -0.0364378 3.09098
lowerneck -17.3855 -5.14011 2.15271
upperneck 21.5216 -6.76351 -4.23019
head 9.42301 -3.46628 -2.69471
rclavicle -1.67204e-014 1.98785e-016
rhumerus -33.8732 -10.7232 -79.2015
rradius 25.743
rwrist -3.54644
rhand -17.554 -3.97168
rfingers 7.12502
rthumb 8.70079 -33.7724
lclavicle -1.67204e-014 1.98785e-016
lhumerus -37.5224 7.39057 79.6203
lradius 27.3622
lwrist 7.49679
lhand -13.8411 2.26093
lfingers 7.12502
lthumb 12.2823 31.8802
rfemur -8.8309 -1.04273 18.621
rtibia 34.8596
rfoot -19.4728 -19.41
rtoes -4.02022
lfemur -12.4339 2.30923 -21.97
ltibia 35.4778
lfoot -17.5005 16.9764
ltoes -8.656
2622
root 1.15682 17.6101 -30.8769 183.176 -180.926 177.422
lowerback 2.92524 -0.206021 -2.11924
upperback -2.82032 -0.304028 1.89019
thorax -4.53515 -0.04792 3.16793
lowerneck -17.476 -4.96796 2.42433
upperneck 21.6092 -6.52574 -4.54229
head 9.45656 -3.36927 -2.82292
rclavicle -1.32953e-014 -1.3418e-015
rhumerus -33.9216 -10.5143 -79.2557
rradius 25.7898
rwrist -3.62263
rhand -17.5269 -3.95061
rfingers 7.12502
rthumb 8.72694 -33.7502
lclavicle -1.32953e-014 -1.3418e-015
lhumerus -37.6469 7.52965 79.5607
lradius 27.39
lwrist 7.48113
lhand -13.8365 2.33241
lfingers 7.12502
lthumb 12.2867 31.9514
rfemur -8.85949 -1.07718 18.5767
rtibia 34.8814
rfoot -19.4761 -19.347
rtoes -4.02205
lfemur -12.4332 2.34328 -22.0046
ltibia 35.4679
lfoot -17.5008 16.9774
ltoes -8.66845
2623
root 1.1629 17.6095 -30.8743 183.194 -180.878 177.436
lowerback 2.91766 -0.294288 -2.20415
upperback -2.87003 -0.421415 2.00543
thorax -4.57364 -0.100205 3.34422
lowerneck -17.6355 -4.67144 2.72909
upperneck 21.713 -6.09271 -4.98717
head 9.51283 -3.19444 -2.98202
rclavicle 8.5027e-015 -1.04362e-014
rhumerus -33.9072 -10.0487 -79.3207
rradius 25.8131
rwrist -3.71061
rhand -17.5052 -3.94661
rfingers 7.12502
rthumb 8.74781 -33.7453
lclavicle 8.5027e-015 -1.04362e-014
lhumerus -37.8429 7.94324 79.4805
lradius 27.4268
lwrist 7.41753
lhand -13.8355 2.37408
lfingers 7.12502
lthumb 12.2877 31.9931
rfemur -8.89079 -1.11561 18.5255
rtibia 34.9079
rfoot -19.484 -19.2727
rtoes -4.02458
lfemur -12.4291 2.32874 -22.0499
ltibia 35.4575
lfoot -17.4956 17.0311
ltoes -8.68096
